<svg width="11" height="7" viewBox="0 0 11 7" fill="none" xmlns="http://www.w3.org/2000/svg">
<path d="M6.32164 0.786362L10.5198 4.98448C10.6638 5.12853 10.7358 5.30346 10.7358 5.50925C10.7358 5.71504 10.6638 5.88996 10.5198 6.03401L9.80978 6.71312C9.66573 6.85717 9.49081 6.9292 9.28502 6.9292C9.07923 6.9292 8.90431 6.85717 8.76025 6.71312L5.79688 3.74974L2.8335 6.71312C2.68944 6.85717 2.51452 6.9292 2.30873 6.9292C2.10294 6.9292 1.92802 6.85717 1.78397 6.71312L1.07399 6.03401C0.929937 5.88996 0.85791 5.71504 0.85791 5.50925C0.85791 5.30346 0.929937 5.12853 1.07399 4.98448L5.27211 0.786362C5.41616 0.642309 5.59108 0.570282 5.79688 0.570282C6.00267 0.570282 6.17759 0.642309 6.32164 0.786362Z" fill="#060606"/>
</svg>
