<svg width="7" height="11" viewBox="0 0 7 11" fill="none" xmlns="http://www.w3.org/2000/svg">
<path d="M6.76003 6.27452L2.5619 10.4726C2.41785 10.6167 2.24293 10.6887 2.03714 10.6887C1.83135 10.6887 1.65643 10.6167 1.51237 10.4726L0.833267 9.76266C0.689214 9.61861 0.617188 9.44369 0.617188 9.2379C0.617188 9.03211 0.689214 8.85719 0.833267 8.71313L3.79665 5.74976L0.833267 2.78638C0.689214 2.64232 0.617188 2.4674 0.617188 2.26161C0.617188 2.05582 0.689214 1.8809 0.833267 1.73685L1.51237 1.02687C1.65643 0.882818 1.83135 0.810791 2.03714 0.810791C2.24293 0.810791 2.41785 0.882818 2.5619 1.02687L6.76003 5.22499C6.90408 5.36904 6.9761 5.54397 6.9761 5.74976C6.9761 5.95555 6.90408 6.13047 6.76003 6.27452Z" fill="#060606"/>
</svg>
