<svg width="11" height="7" viewBox="0 0 11 7" fill="none" xmlns="http://www.w3.org/2000/svg">
<path d="M5.27211 6.71315L1.07399 2.51503C0.929937 2.37098 0.85791 2.19606 0.85791 1.99026C0.85791 1.78447 0.929937 1.60955 1.07399 1.4655L1.78397 0.786392C1.92802 0.642339 2.10294 0.570312 2.30873 0.570312C2.51452 0.570312 2.68944 0.642339 2.8335 0.786392L5.79687 3.74977L8.76025 0.786392C8.90431 0.642339 9.07923 0.570312 9.28502 0.570312C9.49081 0.570312 9.66573 0.642339 9.80978 0.786392L10.5198 1.4655C10.6638 1.60955 10.7358 1.78447 10.7358 1.99026C10.7358 2.19606 10.6638 2.37098 10.5198 2.51503L6.32164 6.71315C6.17759 6.8572 6.00267 6.92923 5.79687 6.92923C5.59108 6.92923 5.41616 6.8572 5.27211 6.71315Z" fill="#060606"/>
</svg>
