<svg width="7" height="11" viewBox="0 0 7 11" fill="none" xmlns="http://www.w3.org/2000/svg">
<path d="M0.833725 5.22499L5.03185 1.02687C5.1759 0.882818 5.35082 0.810791 5.55661 0.810791C5.7624 0.810791 5.93732 0.882818 6.08138 1.02687L6.76048 1.73685C6.90454 1.8809 6.97656 2.05582 6.97656 2.26161C6.97656 2.4674 6.90454 2.64232 6.76048 2.78638L3.7971 5.74976L6.76048 8.71313C6.90454 8.85719 6.97656 9.03211 6.97656 9.2379C6.97656 9.44369 6.90454 9.61861 6.76048 9.76266L6.08138 10.4726C5.93732 10.6167 5.7624 10.6887 5.55661 10.6887C5.35082 10.6887 5.1759 10.6167 5.03185 10.4726L0.833725 6.27452C0.689672 6.13047 0.617645 5.95555 0.617645 5.74976C0.617645 5.54397 0.689672 5.36904 0.833725 5.22499Z" fill="#060606"/>
</svg>
