<svg width="26" height="20" viewBox="0 0 26 20" fill="none" xmlns="http://www.w3.org/2000/svg">
<path d="M24.9119 7.06152C25.0095 6.96387 25.1072 6.94759 25.2048 7.0127C25.335 7.0778 25.4001 7.17546 25.4001 7.30566V17.2666C25.4001 17.9176 25.1723 18.471 24.7166 18.9268C24.2608 19.3825 23.7074 19.6104 23.0564 19.6104H2.7439C2.09285 19.6104 1.53947 19.3825 1.08374 18.9268C0.628011 18.471 0.400146 17.9176 0.400146 17.2666V7.30566C0.400146 7.17546 0.448975 7.09408 0.546631 7.06152C0.676839 6.99642 0.790771 6.99642 0.888428 7.06152C1.96265 7.87533 4.46916 9.71452 8.40796 12.5791C8.47306 12.6442 8.68465 12.8232 9.04272 13.1162C9.43335 13.4092 9.74259 13.637 9.97046 13.7998C10.1983 13.93 10.4913 14.109 10.8494 14.3369C11.2074 14.5322 11.5492 14.6787 11.8748 14.7764C12.2328 14.874 12.5746 14.9229 12.9001 14.9229C13.1931 14.9229 13.4861 14.8903 13.7791 14.8252C14.072 14.7275 14.3487 14.6299 14.6091 14.5322C14.8695 14.402 15.1462 14.2393 15.4392 14.0439C15.7322 13.8486 15.9763 13.6859 16.1716 13.5557C16.3669 13.3929 16.5948 13.2139 16.8552 13.0186C17.1156 12.8232 17.2947 12.6768 17.3923 12.5791C21.2335 9.81217 23.74 7.97298 24.9119 7.06152ZM12.9001 13.3604C12.6397 13.3604 12.3142 13.279 11.9236 13.1162C11.5655 12.9209 11.2725 12.7581 11.0447 12.6279C10.8168 12.4652 10.475 12.221 10.0193 11.8955C9.59611 11.5374 9.36825 11.3584 9.33569 11.3584C5.36434 8.46126 2.53231 6.36165 0.8396 5.05957C0.546631 4.83171 0.400146 4.52246 0.400146 4.13184V3.2041C0.400146 2.55306 0.628011 1.99967 1.08374 1.54395C1.53947 1.08822 2.09285 0.860352 2.7439 0.860352H23.0564C23.7074 0.860352 24.2608 1.08822 24.7166 1.54395C25.1723 1.99967 25.4001 2.55306 25.4001 3.2041V4.13184C25.4001 4.52246 25.2537 4.83171 24.9607 5.05957C23.3656 6.29655 20.5336 8.39616 16.4646 11.3584C16.432 11.3584 16.1879 11.5374 15.7322 11.8955C15.309 12.221 14.9835 12.4652 14.7556 12.6279C14.5278 12.7581 14.2185 12.9209 13.8279 13.1162C13.4698 13.279 13.1606 13.3604 12.9001 13.3604Z" fill="white"/>
</svg>
