<svg width="16" height="16" viewBox="0 0 16 16" fill="none" xmlns="http://www.w3.org/2000/svg">
<path d="M7.68652 4.33691C9.77832 4.33691 11.5049 6.06348 11.5049 8.15527C11.5049 10.2803 9.77832 11.9736 7.68652 11.9736C5.56152 11.9736 3.86816 10.2803 3.86816 8.15527C3.86816 6.06348 5.56152 4.33691 7.68652 4.33691ZM7.68652 10.6455C9.04785 10.6455 10.1436 9.5498 10.1436 8.15527C10.1436 6.79395 9.04785 5.69824 7.68652 5.69824C6.29199 5.69824 5.19629 6.79395 5.19629 8.15527C5.19629 9.5498 6.3252 10.6455 7.68652 10.6455ZM12.5342 4.2041C12.5342 4.70215 12.1357 5.10059 11.6377 5.10059C11.1396 5.10059 10.7412 4.70215 10.7412 4.2041C10.7412 3.70605 11.1396 3.30762 11.6377 3.30762C12.1357 3.30762 12.5342 3.70605 12.5342 4.2041ZM15.0576 5.10059C15.124 6.3291 15.124 10.0146 15.0576 11.2432C14.9912 12.4385 14.7256 13.4678 13.8623 14.3643C12.999 15.2275 11.9365 15.4932 10.7412 15.5596C9.5127 15.626 5.82715 15.626 4.59863 15.5596C3.40332 15.4932 2.37402 15.2275 1.47754 14.3643C0.614258 13.4678 0.348633 12.4385 0.282227 11.2432C0.21582 10.0146 0.21582 6.3291 0.282227 5.10059C0.348633 3.90527 0.614258 2.84277 1.47754 1.97949C2.37402 1.11621 3.40332 0.850586 4.59863 0.78418C5.82715 0.717773 9.5127 0.717773 10.7412 0.78418C11.9365 0.850586 12.999 1.11621 13.8623 1.97949C14.7256 2.84277 14.9912 3.90527 15.0576 5.10059ZM13.4639 12.5381C13.8623 11.5752 13.7627 9.25098 13.7627 8.15527C13.7627 7.09277 13.8623 4.76855 13.4639 3.77246C13.1982 3.1416 12.7002 2.61035 12.0693 2.37793C11.0732 1.97949 8.74902 2.0791 7.68652 2.0791C6.59082 2.0791 4.2666 1.97949 3.30371 2.37793C2.63965 2.64355 2.1416 3.1416 1.87598 3.77246C1.47754 4.76855 1.57715 7.09277 1.57715 8.15527C1.57715 9.25098 1.47754 11.5752 1.87598 12.5381C2.1416 13.2021 2.63965 13.7002 3.30371 13.9658C4.2666 14.3643 6.59082 14.2646 7.68652 14.2646C8.74902 14.2646 11.0732 14.3643 12.0693 13.9658C12.7002 13.7002 13.2314 13.2021 13.4639 12.5381Z" fill="#704FE6"/>
</svg>
