<svg width="19" height="26" viewBox="0 0 19 26" fill="none" xmlns="http://www.w3.org/2000/svg">
<path d="M8.62842 25.2471C7.84717 24.1077 6.95199 22.8219 5.94287 21.3896C4.96631 19.9574 4.26644 18.9482 3.84326 18.3623C3.42008 17.7764 2.9318 17.0602 2.37842 16.2139C1.82503 15.335 1.45068 14.7165 1.25537 14.3584C1.09261 14.0003 0.897298 13.5446 0.669434 12.9912C0.474121 12.4378 0.343913 11.9658 0.278809 11.5752C0.246257 11.152 0.22998 10.6637 0.22998 10.1104C0.22998 7.50618 1.14144 5.29264 2.96436 3.46973C4.78727 1.64681 7.00081 0.735352 9.60498 0.735352C12.2091 0.735352 14.4227 1.64681 16.2456 3.46973C18.0685 5.29264 18.98 7.50618 18.98 10.1104C18.98 10.6637 18.9474 11.152 18.8823 11.5752C18.8498 11.9658 18.7196 12.4378 18.4917 12.9912C18.2964 13.5446 18.1011 14.0003 17.9058 14.3584C17.743 14.7165 17.3849 15.335 16.8315 16.2139C16.2782 17.0602 15.7899 17.7764 15.3667 18.3623C14.9435 18.9482 14.2274 19.9574 13.2183 21.3896C12.2417 22.8219 11.3628 24.1077 10.5815 25.2471C10.3537 25.5726 10.0282 25.7354 9.60498 25.7354C9.1818 25.7354 8.85628 25.5726 8.62842 25.2471ZM6.82178 12.8936C7.60303 13.6423 8.53076 14.0166 9.60498 14.0166C10.6792 14.0166 11.5907 13.6423 12.3394 12.8936C13.1206 12.1123 13.5112 11.1846 13.5112 10.1104C13.5112 9.03613 13.1206 8.12467 12.3394 7.37598C11.5907 6.59473 10.6792 6.2041 9.60498 6.2041C8.53076 6.2041 7.60303 6.59473 6.82178 7.37598C6.07308 8.12467 5.69873 9.03613 5.69873 10.1104C5.69873 11.1846 6.07308 12.1123 6.82178 12.8936Z" fill="white"/>
</svg>
