<svg width="26" height="26" viewBox="0 0 26 26" fill="none" xmlns="http://www.w3.org/2000/svg">
<path d="M24.8573 24.6312C24.7379 25.2519 24.369 25.5676 23.7506 25.5784C17.5016 25.6875 12.1252 23.5675 7.62155 19.2183C3.11788 14.8692 0.811505 9.57006 0.702427 3.32101C0.691633 2.70262 0.994298 2.32293 1.61042 2.18195L6.66732 0.921624C7.28288 0.748094 7.72624 0.968254 7.99741 1.58211L10.4362 7.00912C10.6732 7.5259 10.5672 7.98355 10.1184 8.38206L7.23088 10.8254C8.14317 12.7304 9.36068 14.4021 10.8834 15.8406C12.4067 17.3116 14.1199 18.47 16.023 19.3158L18.4129 16.344C18.7629 15.8821 19.2166 15.7602 19.7739 15.9784L25.2827 18.2263C25.8731 18.4765 26.0923 18.9122 25.9404 19.5334L24.8573 24.6312Z" fill="white"/>
</svg>
