<svg width="14" height="18" viewBox="0 0 14 18" fill="none" xmlns="http://www.w3.org/2000/svg">
<path d="M7.07666 0.887695C10.1978 0.887695 13.0532 3.0459 13.0532 6.33301C13.0532 9.4209 11.4595 12.874 7.93994 12.874C7.07666 12.874 6.04736 12.4424 5.61572 11.6787C4.88525 14.667 4.91846 15.1318 3.2583 17.4229C3.09229 17.4893 3.12549 17.4893 3.02588 17.3564C2.95947 16.7256 2.89307 16.1279 2.89307 15.4971C2.89307 13.4717 3.82275 10.5166 4.2876 8.55762C4.02197 8.02637 3.95557 7.42871 3.95557 6.86426C3.95557 4.20801 7.07666 3.80957 7.07666 6.00098C7.07666 7.2959 6.18018 8.52441 6.18018 9.78613C6.18018 10.6162 6.91064 11.2139 7.74072 11.2139C10.0317 11.2139 10.729 7.92676 10.729 6.16699C10.729 3.80957 9.06885 2.51465 6.77783 2.51465C4.15479 2.51465 2.12939 4.40723 2.12939 7.06348C2.12939 8.3584 2.92627 9.02246 2.92627 9.32129C2.92627 9.58691 2.72705 10.4834 2.39502 10.4834C1.59814 10.4834 0.303223 9.15527 0.303223 6.83105C0.303223 3.14551 3.65674 0.887695 7.07666 0.887695Z" fill="#704FE6"/>
</svg>
