<svg width="18" height="15" viewBox="0 0 18 15" fill="none" xmlns="http://www.w3.org/2000/svg">
<path d="M15.4404 3.70215C15.4404 3.86816 15.4404 4.00098 15.4404 4.16699C15.4404 8.78223 11.9541 14.0615 5.5459 14.0615C3.55371 14.0615 1.72754 13.4971 0.200195 12.501C0.46582 12.5342 0.731445 12.5674 1.03027 12.5674C2.65723 12.5674 4.15137 12.0029 5.34668 11.0732C3.81934 11.04 2.52441 10.0439 2.09277 8.64941C2.3252 8.68262 2.52441 8.71582 2.75684 8.71582C3.05566 8.71582 3.3877 8.64941 3.65332 8.58301C2.05957 8.25098 0.864258 6.85645 0.864258 5.16309V5.12988C1.3291 5.39551 1.89355 5.52832 2.45801 5.56152C1.49512 4.93066 0.897461 3.86816 0.897461 2.67285C0.897461 2.00879 1.06348 1.41113 1.3623 0.913086C3.08887 3.00488 5.67871 4.39941 8.56738 4.56543C8.50098 4.2998 8.46777 4.03418 8.46777 3.76855C8.46777 1.84277 10.0283 0.282227 11.9541 0.282227C12.9502 0.282227 13.8467 0.680664 14.5107 1.37793C15.2744 1.21191 16.0381 0.913086 16.7021 0.514648C16.4365 1.34473 15.9053 2.00879 15.1748 2.44043C15.8721 2.37402 16.5693 2.1748 17.167 1.90918C16.7021 2.60645 16.1045 3.2041 15.4404 3.70215Z" fill="#704FE6"/>
</svg>
